<?xml version="1.0" encoding="UTF-8"?>
<svg width="700pt" height="700pt" version="1.1" viewBox="0 0 700 700" xmlns="http://www.w3.org/2000/svg" xmlns:xlink="http://www.w3.org/1999/xlink">
 <defs>
  <symbol id="u" overflow="visible">
   <path d="m18.766-1.125c-0.96875 0.5-1.9805 0.875-3.0312 1.125-1.043 0.25781-2.1367 0.39062-3.2812 0.39062-3.3984 0-6.0898-0.94531-8.0781-2.8438-1.9922-1.9062-2.9844-4.4844-2.9844-7.7344 0-3.2578 0.99219-5.8359 2.9844-7.7344 1.9883-1.9062 4.6797-2.8594 8.0781-2.8594 1.1445 0 2.2383 0.13281 3.2812 0.39062 1.0508 0.25 2.0625 0.625 3.0312 1.125v4.2188c-0.98047-0.65625-1.9453-1.1406-2.8906-1.4531-0.94922-0.3125-1.9492-0.46875-3-0.46875-1.875 0-3.3516 0.60547-4.4219 1.8125-1.0742 1.1992-1.6094 2.8555-1.6094 4.9688 0 2.1055 0.53516 3.7617 1.6094 4.9688 1.0703 1.1992 2.5469 1.7969 4.4219 1.7969 1.0508 0 2.0508-0.14844 3-0.45312 0.94531-0.3125 1.9102-0.80078 2.8906-1.4688z"/>
  </symbol>
  <symbol id="b" overflow="visible">
   <path d="m13.734-11.141c-0.4375-0.19531-0.87109-0.34375-1.2969-0.4375-0.41797-0.10156-0.83984-0.15625-1.2656-0.15625-1.2617 0-2.2305 0.40625-2.9062 1.2188-0.67969 0.80469-1.0156 1.9531-1.0156 3.4531v7.0625h-4.8906v-15.312h4.8906v2.5156c0.625-1 1.3438-1.7266 2.1562-2.1875 0.82031-0.46875 1.8008-0.70312 2.9375-0.70312 0.16406 0 0.34375 0.011719 0.53125 0.03125 0.19531 0.011719 0.47656 0.039062 0.84375 0.078125z"/>
  </symbol>
  <symbol id="a" overflow="visible">
   <path d="m17.641-7.7031v1.4062h-11.453c0.125 1.1484 0.53906 2.0078 1.25 2.5781 0.70703 0.57422 1.7031 0.85938 2.9844 0.85938 1.0312 0 2.082-0.14844 3.1562-0.45312 1.082-0.3125 2.1914-0.77344 3.3281-1.3906v3.7656c-1.1562 0.4375-2.3125 0.76562-3.4688 0.98438-1.1562 0.22656-2.3125 0.34375-3.4688 0.34375-2.7734 0-4.9297-0.70312-6.4688-2.1094-1.5312-1.4062-2.2969-3.3789-2.2969-5.9219 0-2.5 0.75391-4.4609 2.2656-5.8906 1.5078-1.4375 3.582-2.1562 6.2188-2.1562 2.4062 0 4.332 0.73047 5.7812 2.1875 1.4453 1.4492 2.1719 3.3828 2.1719 5.7969zm-5.0312-1.625c0-0.92578-0.27344-1.6719-0.8125-2.2344-0.54297-0.57031-1.25-0.85938-2.125-0.85938-0.94922 0-1.7188 0.26562-2.3125 0.79688s-0.96484 1.2969-1.1094 2.2969z"/>
  </symbol>
  <symbol id="f" overflow="visible">
   <path d="m9.2188-6.8906c-1.0234 0-1.793 0.17188-2.3125 0.51562-0.51172 0.34375-0.76562 0.85547-0.76562 1.5312 0 0.625 0.20703 1.1172 0.625 1.4688 0.41406 0.34375 0.98828 0.51562 1.7188 0.51562 0.92578 0 1.7031-0.32812 2.3281-0.98438 0.63281-0.66406 0.95312-1.4922 0.95312-2.4844v-0.5625zm7.4688-1.8438v8.7344h-4.9219v-2.2656c-0.65625 0.92969-1.3984 1.6055-2.2188 2.0312-0.82422 0.41406-1.8242 0.625-3 0.625-1.5859 0-2.8711-0.45703-3.8594-1.375-0.99219-0.92578-1.4844-2.1289-1.4844-3.6094 0-1.7891 0.61328-3.1016 1.8438-3.9375 1.2383-0.84375 3.1797-1.2656 5.8281-1.2656h2.8906v-0.39062c0-0.76953-0.30859-1.332-0.92188-1.6875-0.61719-0.36328-1.5703-0.54688-2.8594-0.54688-1.0547 0-2.0312 0.10547-2.9375 0.3125-0.89844 0.21094-1.7305 0.52344-2.5 0.9375v-3.7344c1.0391-0.25 2.0859-0.44141 3.1406-0.57812 1.0625-0.13281 2.125-0.20312 3.1875-0.20312 2.7578 0 4.75 0.54688 5.9688 1.6406 1.2266 1.0859 1.8438 2.8555 1.8438 5.3125z"/>
  </symbol>
  <symbol id="c" overflow="visible">
   <path d="m7.7031-19.656v4.3438h5.0469v3.5h-5.0469v6.5c0 0.71094 0.14062 1.1875 0.42188 1.4375s0.83594 0.375 1.6719 0.375h2.5156v3.5h-4.1875c-1.9375 0-3.3125-0.39844-4.125-1.2031-0.80469-0.8125-1.2031-2.1797-1.2031-4.1094v-6.5h-2.4219v-3.5h2.4219v-4.3438z"/>
  </symbol>
  <symbol id="i" overflow="visible">
   <path d="m12.766-13.078v-8.2031h4.9219v21.281h-4.9219v-2.2188c-0.66797 0.90625-1.4062 1.5703-2.2188 1.9844s-1.7578 0.625-2.8281 0.625c-1.8867 0-3.4336-0.75-4.6406-2.25-1.2109-1.5-1.8125-3.4258-1.8125-5.7812 0-2.3633 0.60156-4.2969 1.8125-5.7969 1.207-1.5 2.7539-2.25 4.6406-2.25 1.0625 0 2 0.21484 2.8125 0.64062 0.82031 0.42969 1.5664 1.0859 2.2344 1.9688zm-3.2188 9.9219c1.0391 0 1.8359-0.37891 2.3906-1.1406 0.55078-0.76953 0.82812-1.8828 0.82812-3.3438 0-1.457-0.27734-2.5664-0.82812-3.3281-0.55469-0.76953-1.3516-1.1562-2.3906-1.1562-1.043 0-1.8398 0.38672-2.3906 1.1562-0.55469 0.76172-0.82812 1.8711-0.82812 3.3281 0 1.4609 0.27344 2.5742 0.82812 3.3438 0.55078 0.76172 1.3477 1.1406 2.3906 1.1406z"/>
  </symbol>
  <symbol id="h" overflow="visible">
   <path d="m10.5-3.1562c1.0508 0 1.8516-0.37891 2.4062-1.1406 0.55078-0.76953 0.82812-1.8828 0.82812-3.3438 0-1.457-0.27734-2.5664-0.82812-3.3281-0.55469-0.76953-1.3555-1.1562-2.4062-1.1562-1.0547 0-1.8594 0.38672-2.4219 1.1562-0.55469 0.77344-0.82812 1.8828-0.82812 3.3281 0 1.4492 0.27344 2.5586 0.82812 3.3281 0.5625 0.77344 1.3672 1.1562 2.4219 1.1562zm-3.25-9.9219c0.67578-0.88281 1.4219-1.5391 2.2344-1.9688 0.82031-0.42578 1.7656-0.64062 2.8281-0.64062 1.8945 0 3.4453 0.75 4.6562 2.25 1.207 1.5 1.8125 3.4336 1.8125 5.7969 0 2.3555-0.60547 4.2812-1.8125 5.7812-1.2109 1.5-2.7617 2.25-4.6562 2.25-1.0625 0-2.0078-0.21094-2.8281-0.625-0.8125-0.42578-1.5586-1.0859-2.2344-1.9844v2.2188h-4.8906v-21.281h4.8906z"/>
  </symbol>
  <symbol id="e" overflow="visible">
   <path d="m0.34375-15.312h4.8906l4.125 10.391 3.5-10.391h4.8906l-6.4375 16.766c-0.64844 1.6953-1.4023 2.8828-2.2656 3.5625-0.86719 0.6875-2 1.0312-3.4062 1.0312h-2.8438v-3.2188h1.5312c0.83203 0 1.4375-0.13672 1.8125-0.40625 0.38281-0.26172 0.67969-0.73047 0.89062-1.4062l0.14062-0.42188z"/>
  </symbol>
  <symbol id="g" overflow="visible">
   <path d="m0.14062-20.406h5.2812l5.4219 15.062 5.4062-15.062h5.2812l-7.5625 20.406h-6.2656z"/>
  </symbol>
  <symbol id="t" overflow="visible">
   <path d="m2.3594-21.281h4.8906v21.281h-4.8906z"/>
  </symbol>
  <symbol id="s" overflow="visible">
   <path d="m2.3594-15.312h4.8906v15.312h-4.8906zm0-5.9688h4.8906v4h-4.8906z"/>
  </symbol>
  <symbol id="r" overflow="visible">
   <path d="m12.422-21.281v3.2188h-2.7031c-0.6875 0-1.1719 0.125-1.4531 0.375-0.27344 0.25-0.40625 0.6875-0.40625 1.3125v1.0625h4.1875v3.5h-4.1875v11.812h-4.8906v-11.812h-2.4375v-3.5h2.4375v-1.0625c0-1.6641 0.46094-2.8984 1.3906-3.7031 0.92578-0.80078 2.3672-1.2031 4.3281-1.2031z"/>
  </symbol>
  <symbol id="d" overflow="visible">
   <path d="m9.6406-12.188c-1.0859 0-1.9141 0.39062-2.4844 1.1719-0.57422 0.78125-0.85938 1.9062-0.85938 3.375s0.28516 2.5938 0.85938 3.375c0.57031 0.77344 1.3984 1.1562 2.4844 1.1562 1.0625 0 1.875-0.38281 2.4375-1.1562 0.57031-0.78125 0.85938-1.9062 0.85938-3.375s-0.28906-2.5938-0.85938-3.375c-0.5625-0.78125-1.375-1.1719-2.4375-1.1719zm0-3.5c2.6328 0 4.6914 0.71484 6.1719 2.1406 1.4766 1.418 2.2188 3.3867 2.2188 5.9062 0 2.5117-0.74219 4.4805-2.2188 5.9062-1.4805 1.418-3.5391 2.125-6.1719 2.125-2.6484 0-4.7148-0.70703-6.2031-2.125-1.4922-1.4258-2.2344-3.3945-2.2344-5.9062 0-2.5195 0.74219-4.4883 2.2344-5.9062 1.4883-1.4258 3.5547-2.1406 6.2031-2.1406z"/>
  </symbol>
  <symbol id="q" overflow="visible">
   <path d="m16.547-12.766c0.61328-0.94531 1.3477-1.6719 2.2031-2.1719 0.85156-0.5 1.7891-0.75 2.8125-0.75 1.7578 0 3.0977 0.54688 4.0156 1.6406 0.92578 1.0859 1.3906 2.6562 1.3906 4.7188v9.3281h-4.9219v-7.9844-0.35938c0.007813-0.13281 0.015625-0.32031 0.015625-0.5625 0-1.082-0.16406-1.8633-0.48438-2.3438-0.3125-0.48828-0.82422-0.73438-1.5312-0.73438-0.92969 0-1.6484 0.38672-2.1562 1.1562-0.51172 0.76172-0.77344 1.8672-0.78125 3.3125v7.5156h-4.9219v-7.9844c0-1.6953-0.14844-2.7852-0.4375-3.2656-0.29297-0.48828-0.8125-0.73438-1.5625-0.73438-0.9375 0-1.6641 0.38672-2.1719 1.1562-0.51172 0.76172-0.76562 1.8594-0.76562 3.2969v7.5312h-4.9219v-15.312h4.9219v2.2344c0.60156-0.86328 1.2891-1.5156 2.0625-1.9531 0.78125-0.4375 1.6406-0.65625 2.5781-0.65625 1.0625 0 2 0.25781 2.8125 0.76562 0.8125 0.51172 1.4258 1.2305 1.8438 2.1562z"/>
  </symbol>
  <symbol id="p" overflow="visible">
   <path d="m17.75-9.3281v9.3281h-4.9219v-7.1094c0-1.3438-0.03125-2.2656-0.09375-2.7656s-0.16797-0.86719-0.3125-1.1094c-0.1875-0.3125-0.44922-0.55469-0.78125-0.73438-0.32422-0.17578-0.69531-0.26562-1.1094-0.26562-1.0234 0-1.8242 0.39844-2.4062 1.1875-0.58594 0.78125-0.875 1.8711-0.875 3.2656v7.5312h-4.8906v-21.281h4.8906v8.2031c0.73828-0.88281 1.5195-1.5391 2.3438-1.9688 0.83203-0.42578 1.75-0.64062 2.75-0.64062 1.7695 0 3.1133 0.54688 4.0312 1.6406 0.91406 1.0859 1.375 2.6562 1.375 4.7188z"/>
  </symbol>
  <symbol id="o" overflow="visible">
   <path d="m2.5781-20.406h5.875l7.4219 14v-14h4.9844v20.406h-5.875l-7.4219-14v14h-4.9844z"/>
  </symbol>
  <symbol id="n" overflow="visible">
   <path d="m2.1875-5.9688v-9.3438h4.9219v1.5312c0 0.83594-0.007813 1.875-0.015625 3.125-0.011719 1.25-0.015625 2.0859-0.015625 2.5 0 1.2422 0.03125 2.1328 0.09375 2.6719 0.070313 0.54297 0.17969 0.93359 0.32812 1.1719 0.20703 0.32422 0.47266 0.57422 0.79688 0.75 0.32031 0.16797 0.69141 0.25 1.1094 0.25 1.0195 0 1.8203-0.39062 2.4062-1.1719 0.58203-0.78125 0.875-1.8672 0.875-3.2656v-7.5625h4.8906v15.312h-4.8906v-2.2188c-0.74219 0.89844-1.5234 1.5586-2.3438 1.9844-0.82422 0.41406-1.7344 0.625-2.7344 0.625-1.7617 0-3.1055-0.53906-4.0312-1.625-0.92969-1.082-1.3906-2.6602-1.3906-4.7344z"/>
  </symbol>
  <symbol id="m" overflow="visible">
   <path d="m17.75-9.3281v9.3281h-4.9219v-7.1406c0-1.3203-0.03125-2.2344-0.09375-2.7344s-0.16797-0.86719-0.3125-1.1094c-0.1875-0.3125-0.44922-0.55469-0.78125-0.73438-0.32422-0.17578-0.69531-0.26562-1.1094-0.26562-1.0234 0-1.8242 0.39844-2.4062 1.1875-0.58594 0.78125-0.875 1.8711-0.875 3.2656v7.5312h-4.8906v-15.312h4.8906v2.2344c0.73828-0.88281 1.5195-1.5391 2.3438-1.9688 0.83203-0.42578 1.75-0.64062 2.75-0.64062 1.7695 0 3.1133 0.54688 4.0312 1.6406 0.91406 1.0859 1.375 2.6562 1.375 4.7188z"/>
  </symbol>
  <symbol id="l" overflow="visible">
   <path d="m2.5781-20.406h8.7344c2.5938 0 4.582 0.57812 5.9688 1.7344 1.3945 1.1484 2.0938 2.7891 2.0938 4.9219 0 2.1367-0.69922 3.7812-2.0938 4.9375-1.3867 1.1562-3.375 1.7344-5.9688 1.7344h-3.4844v7.0781h-5.25zm5.25 3.8125v5.7031h2.9219c1.0195 0 1.8047-0.25 2.3594-0.75 0.5625-0.5 0.84375-1.2031 0.84375-2.1094 0-0.91406-0.28125-1.6172-0.84375-2.1094-0.55469-0.48828-1.3398-0.73438-2.3594-0.73438z"/>
  </symbol>
  <symbol id="k" overflow="visible">
   <path d="m2.3594-15.312h4.8906v15.031c0 2.0508-0.49609 3.6172-1.4844 4.7031-0.98047 1.082-2.4062 1.625-4.2812 1.625h-2.4219v-3.2188h0.85938c0.92578 0 1.5625-0.21094 1.9062-0.625 0.35156-0.41797 0.53125-1.2461 0.53125-2.4844zm0-5.9688h4.8906v4h-4.8906z"/>
  </symbol>
  <symbol id="j" overflow="visible">
   <path d="m14.719-14.828v3.9844c-0.65625-0.45703-1.3242-0.79688-2-1.0156-0.66797-0.21875-1.3594-0.32812-2.0781-0.32812-1.3672 0-2.4336 0.40234-3.2031 1.2031-0.76172 0.79297-1.1406 1.9062-1.1406 3.3438 0 1.4297 0.37891 2.543 1.1406 3.3438 0.76953 0.79297 1.8359 1.1875 3.2031 1.1875 0.75781 0 1.4844-0.10938 2.1719-0.32812 0.6875-0.22656 1.3203-0.56641 1.9062-1.0156v4c-0.76172 0.28125-1.5391 0.48828-2.3281 0.625-0.78125 0.14453-1.5742 0.21875-2.375 0.21875-2.7617 0-4.9219-0.70703-6.4844-2.125-1.5547-1.4141-2.3281-3.3828-2.3281-5.9062 0-2.5312 0.77344-4.5039 2.3281-5.9219 1.5625-1.4141 3.7227-2.125 6.4844-2.125 0.80078 0 1.5938 0.074219 2.375 0.21875 0.78125 0.13672 1.5547 0.35156 2.3281 0.64062z"/>
  </symbol>
 </defs>
 <g>
  <path d="m600.21 449.15c-0.20312-19.656-0.20312-19.848-16.246-19.746-4.4258 0.027344-5.0508-1.7539-5.6211-5.5-1.5859-10.383-2.2734-20.793-1.9375-31.266 0.15234-4.8047-1.0586-10.98-5.375-10.762-12.398 0.63672-9.2617-7.4492-9.0938-13.859 0.19141-7.4102-2.0547-12.465-10.309-9.7891-6.0469 1.9609-6.3516-0.55859-7.2539-5.293-5.0859-26.73-1.6406-53.641-2.043-80.461-0.13281-8.8984-1.0859-18.355 8.3906-24.516 2.1523-1.3945 2.8438-5.6523 3.4219-8.7344 3.4141-18.207 4.5703-36.434 3.1758-55.07-1.3398-17.879-0.33594-17.824-17.801-20.988-3.8477-0.69531-7.5-2.6094-11.16-4.1367-37.605-15.691-72.363-36.785-107.62-56.906-9.6836-5.5273-20.188-10.074-27.035-19.523-12.512-17.254-31.488-25.262-49.469-34.652-4.1172-2.1445-7.8516 0.50391-11.156 2.7422-25.09 17.02-48.797 35.973-73.555 53.465-26.73 18.883-53.043 38.543-79.844 57.512-11.762 8.3281-23.508 10.707-36.266 10.98-10.656 0.23438-14.5 4.5625-14.438 14.438 0.023437 3.9922-1.4492 8.0625-1.0352 11.973 1.4297 13.469-4.8203 27.402 7.3594 40.449 4.7539 5.0898 0.26953 18.832 10.07 25.121 0.52734 0.33984 0.24609 2.3008-0.003906 3.4336-8.293 37.082 2.7031 75.945-10.668 112.77-2.2227 6.1328-1.4961 10.879-9.8906 10.047-4.457-0.44141-7.5586 3.1758-7.6484 7.6992-0.17969 9.207-3.1367 18.078-2.4688 27.434 0.42578 6.0312 2.8398 14.062-8.8242 13.641-3.6406-0.13281-4.793 5.5625-5.9453 9.5078-4.375 14.953-0.039062 29.484 1.3789 44.211 1.0117 10.535 7.0234 14.125 16.223 12.797 14.129-2.0312 28.078 0.33203 42.102 0.58203 7.9062 0.14062 15.559 1.5234 23.762 0.95312 19.402-1.3438 38.902-1.2695 58.547 0.22266 23.559 1.793 47.215 5.5508 70.723 4.7891 18.742-0.60547 37.469-3.375 56.391-2.9023 5.2148 0.12891 11.195 3.2148 15.871-4.2344 1.668-2.6562 13.832-3.0742 15.473-0.64453 7.4219 10.98 17.512 5.75 26.324 5.9297 7.9141 0.15625 15.863-2.9922 23.805-3.0312 44.234-0.21875 88.453-0.40234 132.56-4.3398 7.0273-0.62891 19.953-11.434 18.859-17.125-2.5391-13.105 1.4609-26.438-1.7305-37.219zm-57.484-75.801c2.5703 0.027344 4.957-0.35156 4.9336 3.1758-0.015624 2.5312-0.3125 4.6016-4.0312 3.9219-19.066-3.5234-38.215-0.46094-57.109-0.32031 18.938-2.3789 37.301-6.9844 56.207-6.7773zm-65.93-110.54c-0.75781-8.9219 2.543-11.648 10.938-9.5938 12.75 3.1211 25.582 1.9219 38.289-0.11328 6.6016-1.0586 7.5078 1.2812 6.4414 7.0547-6.2109 33.398-4.7148 66.848-0.66797 101.1-12.918 0.45312-25.188 2.0039-37.32 4.8281-9.3008 2.168-14.352-0.035156-15.754-11.266-2.1445-17.227-2.4258-33.98-0.25781-51.289 1.6758-13.305-0.51562-27.168-1.668-40.723zm25.07-75.84c-1.6406-7.0508-1.4453-10.965 8.0469-9.8125 8.6172 1.043 17.539-0.33984 26.32-0.72656 5.4531-0.24219 7.9922 1.8477 7.7656 7.7188-0.24609 6.3633 0.125 12.777 0.6875 19.137 1.4609 16.469-1.9414 20.344-18.691 20.621-2.0039 0.035156-4.0039 0.003906-6.0078 0.003906v-0.125c-2.4023 0-4.8047 0.054688-7.207-0.011718-12.789-0.33984-14.285-2.4688-8.8242-13.805 3.9805-8.2617-0.33594-15.473-2.0898-23zm36.777 50.656c-0.10156 1.6172-0.20313 3.2383-0.30859 4.8477-21.805 0-43.613-0.09375-65.414 0.10547-3.2188 0.027344-2.7422-1.8359-3.1406-3.5938-0.87891-3.8906 1.0195-4.9609 4.543-4.6797 6.7695 0.54297 13.57 0.77734 20.324 1.4961 14.59 1.5586 29.176 3.2031 43.996 1.8242zm-95.414-106.66c-10.383-0.99609-19.074-5.4375-28.094-14.086 12.559 1.4414 19.703 9.0234 28.094 14.086zm-64.875-44.34c-14.84-3.9375-25.555-11.09-36.785-23.012 15.582 4.8438 27.344 10.293 36.785 23.012zm-88.039 14.426c-7.6289 8.6953-17.102 14.578-27.977 18.273 7.0938-9.6797 17.977-13.258 27.977-18.273zm-46.699 34.109c-2.4922 6.8594-9.0703 8.1211-14.426 12.027 3.6484-7.8242 3.6484-7.8242 14.426-12.027zm-28.227 39.621c21.207-16.262 41.383-33.879 63.906-48.418 17.949-11.586 33.879-25.613 48.473-41.137 5.0391-5.3594 9.3203-8.0938 14.59-0.33984 6.3438 9.3242 18 9.6641 26.898 14.719 22.719 12.906 41.57 31.219 64.383 43.875 12.23 6.7891 23.469 15.328 35.465 22.562 14.598 8.8047 18.184 15.977 15.082 32.859-0.28516 1.5586-1.7344 3.1641-1.4766 4.5195 3.3594 17.555-7.6484 17.625-20.266 18.047-32.469 1.0977-64.902 3.1602-97.355 4.8398-0.023438 0.54688-0.039062 1.0977-0.0625 1.6445-34.121 0-68.242-0.054688-102.36 0.027343-13.66 0.035157-27.312 0.42188-40.969 0.56641-4.8086 0.050781-6.9844-1.2812-8.5273-7.1406-3.4844-13.164-0.73828-26.453-2.9961-39.465-0.77344-4.4688 2.9609-5.4297 5.2188-7.1602zm173.09 189.96c-4.0078-0.95312-2.9102-7.7969-3-11.969-0.3125-14.887-0.125-29.773-0.125-47.594-1.875-14.207 1.125-31.414-0.78516-48.73-0.41406-3.7539 2.3008-17.375 13.961-17.941 17.227-0.82812 34.453-1.6562 51.66-2.7539 5.1914-0.33203 6.5195 1.4453 8.6953 6.5078 11.09 25.766 6.5352 52.012 4.1836 78.254-1.1602 12.945 0.83594 25.723 3.7422 38.074 2.375 10.109-2.582 17.914-4.5312 26.695-0.50781 2.3008-2.6719 2.6719-4.7617 2.8672-17.562 1.6523-35.113 2.9531-52.797 2.5859-5.6055-0.11719-6.4727-2.0938-6.4414-7.0742 0.058594-7.6953 1.7461-16.176-9.8008-18.922zm-15.109-9.7734c1.6055 11.754-2.4453 16.09-13.988 13.961-2.7266-0.50391-5.5781-0.37109-11.996-0.72656-4.75 0.45312-13.125 1.0977-21.461 2.1016-5.9453 0.71875-8.5391-0.73828-8.4336-7.5469 0.48047-31.215-3.0234-62.418-0.34766-93.656 0.66797-7.7344 0.73437-14.285 12.266-13.215 12.273 1.1367 24.801-0.24219 37.207-0.75781 5.5234-0.23047 7.8242 0.17188 7.4492 7.4688-1.5703 30.762-4.9023 61.602-0.69531 92.371zm-2.8672 29.16c-16.535-0.38672-33 2.25-49.555 0.95703 16.453-3.2852 32.926-5.8125 49.555-0.95703zm-66.199-38.348c0.40234 9.4297 6.6289 20.332-7.0742 25.918-0.55859 0.22266-1.1328 1.2891-1.1094 1.9414 0.59766 16.285-11.266 12.492-20.211 12.059-16.477-0.79688-32.676 3.7188-49.242 1.7578-5.5938-0.66016-7.3477-1.7188-9.0898-7.707-7.6992-26.402-3.0586-53.207-3.5-79.738-0.32031-19.398-4.2656-38.949 0.10547-58.793 22.484 3.1523 44.844 0.5 67.195 0.27344 5.3867-0.054688 8.5898-1.418 9.0117 6.3516 0.49219 9.0625 2.4531 9.4922 16.742 10.074-5.9336 29.125-4.0703 58.512-2.8281 87.863zm-3.6836-100.53c-0.089844-1.3203-0.17969-2.6484-0.26953-3.9688 13.73-0.34766 27.461-0.69531 41.195-1.0352 9.9023-4.5195 20.055-0.64453 30.145-0.875-9.0508 3.332-18.848-0.10547-27.844 3.2422-14.391 1.4766-28.891-0.86719-43.227 2.6367zm-89.836-86.352c-6.2266 6.9258-12.336 14.027-24.77 14.48 7.7227-7.7617 15.727-11.926 24.77-14.48zm-54.184 220.75c5.2969 1.1797 10.527 2.6641 15.781 4.0273h29.914c-10.672 2.3008-21.125 6.1055-32.262 4.1953-4.5742-0.66797-9.1406-1.3945-13.727-1.9727-2.7227-0.33984-6.1211-0.10156-5.4414-4.1875 0.54297-3.2148 3.5664-2.543 5.7344-2.0625zm-8.1602-135.63c0.4375-6.293 4.1953-2.3125 6.8477-1.875 11.688-2.9297 23.66-1.2227 35.543-1.457 4.4258-0.089844 9.7031-0.77734 8.3711 6.3516-1.2773 6.8164-5.3984 1.6523-8.3047 1.6055-11.609-0.19141-23.223-0.30078-34.828-0.59766-3.0938-0.078125-8.0703 2.3477-7.6289-4.0273zm53.121 47.684c-0.28516 22.887-1.0312 45.781-0.72266 68.66 0.11328 8.3008-3.8867 9.8633-10.539 10.988-11.176 1.8867-20.938-3.7227-31.473-5.0508-4.1055-0.51562-1.7461-3.5391-2.1445-5.5273-2.8164-13.945-0.69531-28.051-1.3203-38.27-0.33984-19.824 1.0352-35.973-2.3008-51.793-1.8594-8.8047 1.8125-10.641 9.4023-9.625 3.9648 0.53125 7.9805 0.72266 11.984 0.90234 9.1211 0.40234 21.805-2.9219 26.32 2.8242 4.4492 5.6719 0.90625 17.668 0.79297 26.891zm-57.68-80.219c1.8945-8.0352-2.8242-17.543 0.89062-23.207 2.3984-3.6562 13.035 3.332 20.57 1.4219 4.207-1.0625 8.7461-0.83984 13.137-1.1641 19.461-1.4492 20.004-0.89453 18.246 18.641-1.6523 18.379-1.6523 18.379-22.914 19.062-5.918 1.1992-12.852-0.55469-19.953-1.3086-9.4297-1.0039-11.832-5.5664-9.9766-13.445zm40.215 203.23c26.543 0.15625 52.879-2.8633 79.352-3.3828 16.418-0.32422 32.832-1.0469 49.254-1.4062 43.445-0.95312 87.031 0.035157 130.3-3.2656 36.445-2.7773 72.922-1.1406 109.25-4.25 18.262-1.5625 8.8594 13.082 11.531 20.055 3.3164 8.6406-4.7695 6.4609-9.4258 6.8477-38.812 3.1914-77.766 4.1758-116.55 8.125-13.895 1.418-28.125-0.85156-42.195-0.77734-55.719 0.28125-111.41 2.3633-167.14 2.7383-30.133 0.20312-59.848-2.4375-89.699-5-4.6992-0.40234-6.5469-0.89453-5.3867-6.1562 1.2695-5.7461 1.3281-11.711-1.4336-16.715 18.309-8.3828 34.738 3.0859 52.141 3.1875zm402.14 33.656c-1.3477 8.6914-1.3672 17.617-3.1094 26.207-0.92969 4.5703-1.7812 10.527-9.2969 10.477-30.27-0.19531-60.238 4.8594-90.305 6.2148-34.652 1.5586-69.598 2.3359-104.35-1.2812-8.3945-0.875-16.762 0.89062-25.16 1.7812-46.531 4.9219-93.195 6.25-139.89 2.2695-26.348-2.2461-52.832 2.5664-79.121-1.5977-6.3828-0.28516-14.332 1.6523-18.73-1.4492-4.8984-3.4492-1.1914-11.953-2.043-18.219-2.0703-15.309-1.7539-13.895 13.242-15.055 33.207-2.5664 66.496-1.5664 99.727-3.7188 27.871-1.8047 56.035 1.3984 84.035 0.78516 25.137-0.54688 50.23 2.4062 75.449-0.92578 20.242-2.6758 40.809-0.003906 61.383-2.3203 34.254-3.8477 68.762-7.6602 103.31-5.3086 10.121 0.6875 17.941-5.5156 27.57-5.0352 5.2695 0.27344 8.2852 0.69922 7.2852 7.1758z"/>
  <path d="m322.05 200.39c13.094 3.0625 26.23 5.125 39.832 0.3125 19.344-6.8438 29.59-30.664 20.145-49.141-8.125-15.883-31.375-26.207-49.09-21.801-15.953 3.9688-26.773 19.723-27.066 39.379-0.26172 18.094 4.6055 28.539 16.18 31.25zm22.621-58.555c15.539 0.75 27.367 13.027 27.609 28.648 0.19141 12.27-10.258 19.258-28.203 18.871-12.992-0.28125-22.895-9.1562-22.562-20.234 0.45703-15.449 11.004-27.875 23.156-27.285z"/>
  <use x="70" y="644" xlink:href="#u"/>
  <use x="90.550781" y="644" xlink:href="#b"/>
  <use x="104.359375" y="644" xlink:href="#a"/>
  <use x="123.347656" y="644" xlink:href="#f"/>
  <use x="142.242188" y="644" xlink:href="#c"/>
  <use x="155.628906" y="644" xlink:href="#a"/>
  <use x="174.617188" y="644" xlink:href="#i"/>
  <use x="204.410156" y="644" xlink:href="#h"/>
  <use x="224.453125" y="644" xlink:href="#e"/>
  <use x="252.453125" y="644" xlink:href="#g"/>
  <use x="274.121094" y="644" xlink:href="#f"/>
  <use x="293.015625" y="644" xlink:href="#t"/>
  <use x="302.613281" y="644" xlink:href="#a"/>
  <use x="321.601562" y="644" xlink:href="#b"/>
  <use x="335.414062" y="644" xlink:href="#s"/>
  <use x="345.007812" y="644" xlink:href="#e"/>
  <use x="70" y="672" xlink:href="#r"/>
  <use x="82.183594" y="672" xlink:href="#b"/>
  <use x="95.992188" y="672" xlink:href="#d"/>
  <use x="115.226562" y="672" xlink:href="#q"/>
  <use x="154.152344" y="672" xlink:href="#c"/>
  <use x="167.535156" y="672" xlink:href="#p"/>
  <use x="187.46875" y="672" xlink:href="#a"/>
  <use x="216.207031" y="672" xlink:href="#o"/>
  <use x="239.640625" y="672" xlink:href="#d"/>
  <use x="258.878906" y="672" xlink:href="#n"/>
  <use x="278.8125" y="672" xlink:href="#m"/>
  <use x="308.492188" y="672" xlink:href="#l"/>
  <use x="329.015625" y="672" xlink:href="#b"/>
  <use x="342.820312" y="672" xlink:href="#d"/>
  <use x="362.058594" y="672" xlink:href="#k"/>
  <use x="371.65625" y="672" xlink:href="#a"/>
  <use x="390.648438" y="672" xlink:href="#j"/>
  <use x="407.242188" y="672" xlink:href="#c"/>
 </g>
</svg>
